# xmcd CD database file
#
# Track frame offsets:
#	150
#	21113
#	38584
#	50488
#	67034
#	83654
#	96502
#	111033
#	123587
#	132910
#	151385
#	163044
#	173907
#	189245
#
# Disc length: 2771 seconds
#
# Revision: 0
# Processed by: cddbd v1.4PL0 Copyright (c) Steve Scherf et al.
# Submitted via: CDex 1.40Release
#
DISCID=b60ad10e
DTITLE=Backwater Blues Band - Hittin' the Big Time
DYEAR=2001
DGENRE=Blues
TTITLE0=Constant Complainer
TTITLE1=Like I Love My Guitar
TTITLE2=Bardyard Boogie
TTITLE3=Hard To Sing The Blues
TTITLE4=How Long?
TTITLE5=T-bone Shuffle
TTITLE6=Same Old Blues
TTITLE7=Fourteen Beers
TTITLE8=I'm Gonna Miss You
TTITLE9=Hot Potato
TTITLE10=Who's Been Talking
TTITLE11=Dancing All Night Long
TTITLE12=Down to the River
TTITLE13=On My Way Out
EXTD=YEAR: 2001 ID3G: 0
EXTT0=
EXTT1=
EXTT2=
EXTT3=
EXTT4=
EXTT5=
EXTT6=
EXTT7=
EXTT8=
EXTT9=
EXTT10=
EXTT11=
EXTT12=
EXTT13=
PLAYORDER=
